<svg xmlns="http://www.w3.org/2000/svg" style="display: none;">
  <symbol id="class-icon" viewBox="0 0 24 24">
    <path
      d="m7 11c0 2.757 2.243 5 5 5s5-2.243 5-5c0-.552.448-1 1-1s1 .448 1 1c0 3.86-3.14 7-7 7s-7-3.14-7-7 3.14-7 7-7c.552 0 1 .448 1 1s-.448 1-1 1c-2.757 0-5 2.243-5 5zm5 1c-.552 0-1-.448-1-1 0-.276.112-.526.293-.707l1.982-1.982c-1.112-.501-2.51-.319-3.397.568s0 0 0 0c-.566.566-.878 1.32-.878 2.121s.312 1.555.878 2.121 1.32.879 2.122.879 1.555-.312 2.121-.878.879-1.32.879-2.122c0-.454-.11-.888-.3-1.286l-1.992 1.992c-.181.181-.431.293-.707.293zm1.275-3.69c.309.139.6.322.846.568s.433.531.578.835l1.714-1.714h2.586c.265 0 .52-.105.707-.293l2-2c.286-.286.372-.716.217-1.09s-.52-.617-.924-.617h-2v-1.999c0-.404-.244-.769-.617-.924-.375-.155-.804-.07-1.09.217l-2 2c-.188.188-.293.442-.293.707v2.586l-1.725 1.725zm6.02 10.9c2.267-2.016 3.705-4.945 3.705-8.21 0-.371-.018-.737-.054-1.099-.055-.549-.542-.951-1.094-.896-.549.055-.951.544-.896 1.094.029.296.044.597.044.901 0 4.962-4.038 9-9 9s-9-4.038-9-9 4.038-9 9-9c.304 0 .604.015.901.044.556.056 1.04-.347 1.094-.896.055-.55-.347-1.04-.896-1.094-.362-.036-.729-.054-1.099-.054-6.065 0-11 4.935-11 11 0 3.265 1.438 6.194 3.705 8.21l-2.051 3.257c-.294.467-.154 1.084.313 1.379.46.292 1.083.158 1.379-.313l1.972-3.132c1.661 1.008 3.601 1.599 5.682 1.599s4.021-.591 5.682-1.599l1.972 3.132c.296.471.919.605 1.379.313.467-.294.608-.912.313-1.379z" />
  </symbol>

  <symbol id="birthday" viewBox="0 0 24 24">
    <path
      d="m16.942,16.73c.198-1.011-.118-2.05-.847-2.778l-6.047-6.047c-.729-.729-1.767-1.043-2.778-.848-1.011.198-1.853.884-2.253,1.833L.211,20.302c-.421,1.003-.197,2.146.572,2.915.511.511,1.188.781,1.878.781.349,0,.701-.068,1.037-.21l11.411-4.805c.949-.399,1.634-1.242,1.833-2.253Zm-2.996-.513h0l-10.646,4.483,4.482-10.646.145-.028,6.072,6.127c-.009.047-.036.058-.052.064ZM12.843.562c.518-.638,1.443-.748,2.086-.239.839.662,2.218,2.413,2.068,4.773-.074,1.156-.512,2.27-1.302,3.311-.295.39-.743.594-1.196.594-.316,0-.635-.1-.906-.305-.66-.501-.789-1.442-.288-2.102.427-.563.662-1.132.698-1.689.087-1.36-.905-2.203-.947-2.238-.63-.525-.73-1.467-.213-2.104Zm10.883,11.074c.477.677.315,1.613-.362,2.09-.263.186-.564.274-.863.274-.462,0-.917-.213-1.209-.61-.034-.042-.331-.39-.792-.39-.235,0-.432.062-.602.19-.661.498-1.602.367-2.101-.294s-.368-1.602.293-2.101c.69-.521,1.523-.796,2.409-.796,2.015,0,3.108,1.468,3.226,1.636Zm-2.726-10.136c0-.828.672-1.5,1.5-1.5s1.5.672,1.5,1.5-.672,1.5-1.5,1.5-1.5-.672-1.5-1.5Zm-2,5c0-.828.672-1.5,1.5-1.5s1.5.672,1.5,1.5-.672,1.5-1.5,1.5-1.5-.672-1.5-1.5ZM8,2.5c0-.828.672-1.5,1.5-1.5s1.5.672,1.5,1.5-.672,1.5-1.5,1.5-1.5-.672-1.5-1.5Zm15,16c0,.828-.672,1.5-1.5,1.5s-1.5-.672-1.5-1.5.672-1.5,1.5-1.5,1.5.672,1.5,1.5ZM1,3.5c0-.828.672-1.5,1.5-1.5s1.5.672,1.5,1.5-.672,1.5-1.5,1.5-1.5-.672-1.5-1.5Zm17,19c0,.828-.672,1.5-1.5,1.5s-1.5-.672-1.5-1.5.672-1.5,1.5-1.5,1.5.672,1.5,1.5Z" />
  </symbol>

  <symbol id="phone" viewBox="0 0 24 24">
    <path
      d="M17.5,24C9.351,24.229-5.075,9.787,1.862,1.938,1.887,1.914,2.954.984,2.954.984a3.583,3.583,0,0,1,4.908.041l2.152,2.318a3.522,3.522,0,0,1-.039,4.91l-.388.394a11.6,11.6,0,0,0,5.754,5.778l.411-.4a3.585,3.585,0,0,1,4.945,0L22.934,16.1a3.515,3.515,0,0,1,.082,4.946s-.93,1.066-.954,1.091A6.39,6.39,0,0,1,17.5,24ZM3.95,4.1C-.909,10.118,14.644,24.773,19.905,20.05c0,0,.924-1.059.949-1.083a.5.5,0,0,0,0-.707l-2.238-2.074c-.3-.25-.469-.253-.747-.04l-1.136,1.118a1.5,1.5,0,0,1-1.587.332A14.852,14.852,0,0,1,6.414,8.877a1.5,1.5,0,0,1,.323-1.61L7.845,6.141a.485.485,0,0,0,.009-.717L5.7,3.106a.487.487,0,0,0-.667.04C5.009,3.171,3.95,4.1,3.95,4.1ZM16.808,15.086h0ZM24,9.5A9.511,9.511,0,0,0,14.5,0a1.5,1.5,0,0,0,0,3A6.508,6.508,0,0,1,21,9.5a1.5,1.5,0,0,0,3,0Zm-5,0A4.505,4.505,0,0,0,14.5,5a1.5,1.5,0,0,0,0,3A1.5,1.5,0,0,1,16,9.5a1.5,1.5,0,0,0,3,0Z" />
  </symbol>

  <symbol id="mail" viewBox="0 0 24 24">
    <path
      d="M18.5,1H5.5A5.506,5.506,0,0,0,0,6.5v11A5.506,5.506,0,0,0,5.5,23h13A5.506,5.506,0,0,0,24,17.5V6.5A5.506,5.506,0,0,0,18.5,1Zm0,3a2.476,2.476,0,0,1,1.643.631l-6.5,6.5a2.373,2.373,0,0,1-3.278,0l-6.5-6.5A2.476,2.476,0,0,1,5.5,4Zm0,16H5.5A2.5,2.5,0,0,1,3,17.5V8.017l5.239,5.239a5.317,5.317,0,0,0,7.521,0L21,8.017V17.5A2.5,2.5,0,0,1,18.5,20Z" />
  </symbol>

  <symbol id="eye" viewBox="0 0 24 24">
    <path
      d="M23.821,11.181v0a15.736,15.736,0,0,0-4.145-5.44l3.032-3.032L21.293,1.293,18,4.583A11.783,11.783,0,0,0,12,3C4.5,3,1.057,9.261.179,11.181a1.969,1.969,0,0,0,0,1.64,15.736,15.736,0,0,0,4.145,5.44L1.293,21.293l1.414,1.414L6,19.417A11.783,11.783,0,0,0,12,21c7.5,0,10.943-6.261,11.821-8.181A1.968,1.968,0,0,0,23.821,11.181ZM2,12.011C2.75,10.366,5.693,5,12,5a9.847,9.847,0,0,1,4.518,1.068L14.753,7.833a4.992,4.992,0,0,0-6.92,6.92L5.754,16.832A13.647,13.647,0,0,1,2,12.011ZM15,12a3,3,0,0,1-3,3,2.951,2.951,0,0,1-1.285-.3L14.7,10.715A2.951,2.951,0,0,1,15,12ZM9,12a3,3,0,0,1,3-3,2.951,2.951,0,0,1,1.285.3L9.3,13.285A2.951,2.951,0,0,1,9,12Zm3,7a9.847,9.847,0,0,1-4.518-1.068l1.765-1.765a4.992,4.992,0,0,0,6.92-6.92l2.078-2.078A13.584,13.584,0,0,1,22,12C21.236,13.657,18.292,19,12,19Z" />
  </symbol>

  <symbol id="lock" viewBox="0 0 24 24">
    <path
      d="M11,15c0,.553-.448,1-1,1H5c-2.757,0-5-2.243-5-5v-3C0,5.243,2.243,3,5,3h14c2.757,0,5,2.243,5,5,0,.553-.447,1-1,1s-1-.447-1-1c0-1.654-1.346-3-3-3H5c-1.654,0-3,1.346-3,3v3c0,1.654,1.346,3,3,3h5c.552,0,1,.447,1,1Zm-2.293-7.707c-.391-.391-1.023-.391-1.414,0l-.793,.793-.793-.793c-.391-.391-1.023-.391-1.414,0s-.391,1.023,0,1.414l.793,.793-.793,.793c-.391,.391-.391,1.023,0,1.414,.195,.195,.451,.293,.707,.293s.512-.098,.707-.293l.793-.793,.793,.793c.195,.195,.451,.293,.707,.293s.512-.098,.707-.293c.391-.391,.391-1.023,0-1.414l-.793-.793,.793-.793c.391-.391,.391-1.023,0-1.414Zm6,1.414c.391-.391,.391-1.023,0-1.414s-1.023-.391-1.414,0l-.793,.793-.793-.793c-.391-.391-1.023-.391-1.414,0s-.391,1.023,0,1.414l.793,.793-.793,.793c-.391,.391-.391,1.023,0,1.414,.195,.195,.451,.293,.707,.293s.512-.098,.707-.293l3-3Zm9.293,9.293v2c0,2.206-1.794,4-4,4h-4c-2.206,0-4-1.794-4-4v-2c0-1.474,.81-2.75,2-3.444v-1.556c0-2.206,1.794-4,4-4s4,1.794,4,4v1.556c1.19,.694,2,1.97,2,3.444Zm-8-4h4v-1c0-1.103-.897-2-2-2s-2,.897-2,2v1Zm6,4c0-1.103-.897-2-2-2h-4c-1.103,0-2,.897-2,2v2c0,1.103,.897,2,2,2h4c1.103,0,2-.897,2-2v-2Zm-4-.5c-.828,0-1.5,.672-1.5,1.5s.672,1.5,1.5,1.5,1.5-.672,1.5-1.5-.672-1.5-1.5-1.5Z" />
  </symbol>

  <symbol id="code" viewBox="0 0 24 24">
    <path
      d="M4,11C1.79,11,0,9.21,0,7v-3C0,1.79,1.79,0,4,0s4,1.79,4,4v3c0,2.21-1.79,4-4,4Zm0-9c-1.1,0-2,.9-2,2v3c0,1.1,.9,2,2,2s2-.9,2-2v-3c0-1.1-.9-2-2-2Zm5.75,20.9c.37-.41,.33-1.04-.08-1.41-.42-.38-.67-.92-.67-1.49v-4c0-.55-.45-1-1-1s-1,.45-1,1v4c0,1.14,.49,2.22,1.33,2.98,.19,.17,.43,.25,.67,.25,.27,0,.55-.11,.75-.33Zm4.25-13.9V1c0-.4-.24-.77-.62-.92-.37-.15-.8-.07-1.09,.22l-2.44,2.44c-.39,.39-.39,1.02,0,1.41s1.02,.39,1.41,0l.74-.74v5.59c0,.55,.45,1,1,1s1-.45,1-1ZM5,23V14c0-.4-.24-.77-.62-.92-.37-.15-.8-.07-1.09,.22L.85,15.74c-.39,.39-.39,1.02,0,1.41s1.02,.39,1.41,0l.74-.74v6.59c0,.55,.45,1,1,1s1-.45,1-1Zm12,1c-3.86,0-7-3.14-7-7s3.14-7,7-7,7,3.14,7,7-3.14,7-7,7Zm0-12c-2.76,0-5,2.24-5,5s2.24,5,5,5,5-2.24,5-5-2.24-5-5-5Zm1,7.41l2.71-2.71c.39-.39,.39-1.02,0-1.41s-1.02-.39-1.41,0l-2.71,2.71-1.71-1.71c-.39-.39-1.02-.39-1.41,0s-.39,1.02,0,1.41l1.71,1.71c.39,.39,.9,.58,1.41,.58s1.02-.19,1.41-.58Z" />
  </symbol>

  <symbol id="user-code" viewBox="0 0 24 24">
    <path
      d="m14.707,19.707l-1.293,1.293,1.293,1.293c.391.391.391,1.023,0,1.414-.195.195-.451.293-.707.293s-.512-.098-.707-.293l-1.293-1.293-1.293,1.293c-.195.195-.451.293-.707.293s-.512-.098-.707-.293c-.391-.391-.391-1.023,0-1.414l1.293-1.293-1.293-1.293c-.391-.391-.391-1.023,0-1.414s1.023-.391,1.414,0l1.293,1.293,1.293-1.293c.391-.391,1.023-.391,1.414,0s.391,1.023,0,1.414Zm6.707,1.293l1.293-1.293c.391-.391.391-1.023,0-1.414s-1.023-.391-1.414,0l-1.293,1.293-1.293-1.293c-.391-.391-1.023-.391-1.414,0s-.391,1.023,0,1.414l1.293,1.293-1.293,1.293c-.391.391-.391,1.023,0,1.414.195.195.451.293.707.293s.512-.098.707-.293l1.293-1.293,1.293,1.293c.195.195.451.293.707.293s.512-.098.707-.293c.391-.391.391-1.023,0-1.414l-1.293-1.293Zm-14.707-2.707c-.391-.391-1.023-.391-1.414,0l-1.293,1.293-1.293-1.293c-.391-.391-1.023-.391-1.414,0s-.391,1.023,0,1.414l1.293,1.293-1.293,1.293c-.391.391-.391,1.023,0,1.414.195.195.451.293.707.293s.512-.098.707-.293l1.293-1.293,1.293,1.293c.195.195.451.293.707.293s.512-.098.707-.293c.391-.391.391-1.023,0-1.414l-1.293-1.293,1.293-1.293c.391-.391.391-1.023,0-1.414Zm11.293-7.293c0,2.206-1.794,4-4,4h-4c-2.206,0-4-1.794-4-4v-2c0-1.474.81-2.75,2-3.444v-1.556c0-2.206,1.794-4,4-4s4,1.794,4,4v1.556c1.19.694,2,1.97,2,3.444v2Zm-8-6h4v-1c0-1.103-.897-2-2-2s-2,.897-2,2v1Zm6,4c0-1.103-.897-2-2-2h-4c-1.103,0-2,.897-2,2v2c0,1.103.897,2,2,2h4c1.103,0,2-.897,2-2v-2Zm-4-.5c-.828,0-1.5.672-1.5,1.5s.672,1.5,1.5,1.5,1.5-.672,1.5-1.5-.672-1.5-1.5-1.5Z" />
  </symbol>

  <symbol id="user-id" viewBox="0 0 24 24">
    <path
      d="m24 12c0 .552-.447 1-1 1h-22c-.552 0-1-.448-1-1s.448-1 1-1h2.059c.5-4.493 4.317-8 8.941-8 1.964 0 3.832.624 5.401 1.805.441.332.529.959.197 1.4-.331.441-.957.531-1.4.198-1.22-.917-2.671-1.403-4.198-1.403-3.519 0-6.432 2.613-6.92 6h9.764c-.365-1.155-1.435-2-2.709-2-.808 0-1.583.347-2.125.952-.37.411-1.001.445-1.412.077-.411-.369-.446-1.001-.077-1.412.921-1.027 2.238-1.617 3.614-1.617 2.384 0 4.362 1.731 4.767 4h2.018c-.101-.709-.303-1.396-.62-2.047-.241-.497-.035-1.095.462-1.337.497-.241 1.096-.034 1.337.462.451.927.733 1.907.845 2.922h2.056c.553 0 1 .448 1 1zm-17 10h-2c-1.654 0-3-1.346-3-3v-2c0-.552-.448-1-1-1s-1 .448-1 1v2c0 2.757 2.243 5 5 5h2c.552 0 1-.448 1-1s-.448-1-1-1zm16-6c-.553 0-1 .448-1 1v2c0 1.654-1.346 3-3 3h-2c-.553 0-1 .448-1 1s.447 1 1 1h2c2.757 0 5-2.243 5-5v-2c0-.552-.447-1-1-1zm-4-16h-2c-.553 0-1 .448-1 1s.447 1 1 1h2c1.654 0 3 1.346 3 3v2c0 .552.447 1 1 1s1-.448 1-1v-2c0-2.757-2.243-5-5-5zm-18 8c.552 0 1-.448 1-1v-2c0-1.654 1.346-3 3-3h2c.552 0 1-.448 1-1s-.448-1-1-1h-2c-2.757 0-5 2.243-5 5v2c0 .552.448 1 1 1zm18.816 11.506c.385-1.145.651-2.273.831-3.344.103-.609-.366-1.162-.984-1.162h-.006c-.491 0-.898.359-.981.843-.165.97-.408 1.989-.756 3.021-.17.503.056 1.054.544 1.263.545.234 1.163-.059 1.352-.621zm-4.209-4.506h-.01c-.461 0-.872.315-.967.767-.206.976-.508 1.947-.937 2.768-.229.438-.099.973.302 1.261.49.352 1.19.201 1.467-.335.502-.969.871-2.102 1.121-3.257.134-.619-.343-1.204-.977-1.204zm-4.097 0c-.461 0-.844.321-.967.765-.348 1.26-.911 2.344-1.72 3.333-.316.386-.269.956.084 1.309.423.423 1.12.377 1.496-.089.967-1.198 1.65-2.529 2.071-4.052.175-.634-.307-1.265-.964-1.265zm-3.925.098c-.498-.238-1.095-.027-1.333.472-.563 1.18-1.428 1.442-1.49 1.459-.529.13-.858.661-.736 1.194.106.463.518.777.974.777.504-.08 1.897-.345 3.057-2.569.238-.499.027-1.095-.472-1.333z" />
  </symbol>

  <symbol id="user-plan" viewBox="0 0 24 24">
    <path
      d="m12,11c0,.359-.192.69-.504.868l-3.5,2c-.156.089-.327.132-.495.132-.348,0-.685-.181-.869-.504-.274-.479-.107-1.09.372-1.364l2.996-1.712v-4.42c0-.552.447-1,1-1s1,.448,1,1v5Zm12,6v4c0,1.654-1.346,3-3,3h-6c-1.654,0-3-1.346-3-3v-4c0-1.302.839-2.402,2-2.816v-1.184c0-.552.447-1,1-1s1,.448,1,1v1h4v-1c0-.552.447-1,1-1s1,.448,1,1v1.184c1.161.414,2,1.514,2,2.816Zm-2,4v-3h-8v3c0,.551.448,1,1,1h6c.552,0,1-.449,1-1Zm-12.801-1.18c-4.172-.847-7.199-4.556-7.199-8.82C2,6.038,6.037,2,11,2c4.264,0,7.973,3.028,8.819,7.199.11.541.636.893,1.18.781.541-.11.891-.638.781-1.179C20.744,3.701,16.211,0,11,0,4.935,0,0,4.935,0,11c0,5.211,3.701,9.745,8.801,10.78.067.014.135.02.2.02.466,0,.883-.327.979-.801.109-.541-.24-1.069-.781-1.179Z" />
  </symbol>

  <symbol id="money-hand" viewBox="0 0 24 24">
    <path
      d="M23.02,8.79c-.59-.54-1.36-.81-2.17-.78-.8,.04-1.54,.39-2.09,.98l-3.22,3.53c-.55-.91-1.55-1.52-2.69-1.52H4c-2.21,0-4,1.79-4,4v5c0,2.21,1.79,4,4,4h4.96c2.85,0,5.57-1.22,7.47-3.35l6.81-7.64c1.09-1.23,.99-3.12-.22-4.23Zm-1.27,2.9l-6.81,7.64c-1.52,1.7-3.69,2.68-5.97,2.68H4c-1.1,0-2-.9-2-2v-5c0-1.1,.9-2,2-2H12.86c.63,0,1.14,.51,1.14,1.14,0,.56-.42,1.05-.98,1.13l-5.16,.74c-.55,.08-.93,.58-.85,1.13,.08,.55,.59,.93,1.13,.85l5.16-.74c1.18-.17,2.13-.99,2.51-2.06l4.43-4.86c.18-.2,.43-.32,.7-.33,.27,0,.53,.08,.73,.26,.41,.37,.44,1.01,.07,1.42Z" />
    <path
      d="M9,10h.38c1.45,0,2.62-1.18,2.62-2.62,0-1.29-.92-2.38-2.19-2.59l-3.28-.55c-.3-.05-.52-.31-.52-.62,0-.34,.28-.62,.62-.62h2.64c.36,0,.69,.19,.87,.5,.27,.48,.88,.64,1.37,.36,.48-.28,.64-.89,.36-1.37-.53-.92-1.53-1.5-2.6-1.5h-.27c0-.55-.45-1-1-1s-1,.45-1,1h-.38c-1.45,0-2.62,1.18-2.62,2.62,0,1.29,.92,2.38,2.19,2.59l3.28,.55c.3,.05,.52,.31,.52,.62,0,.34-.28,.62-.62,.62h-2.64c-.36,0-.69-.19-.87-.5-.28-.48-.89-.64-1.37-.36-.48,.28-.64,.89-.36,1.37,.53,.92,1.53,1.5,2.6,1.5h.27c0,.55,.45,1,1,1s1-.45,1-1Z" />
  </symbol>

  <symbol id="money" viewBox="0 0 24 24">
    <path
      d="M12,0C5.383,0,0,5.383,0,12s5.383,12,12,12,12-5.383,12-12S18.617,0,12,0Zm0,22c-5.514,0-10-4.486-10-10S6.486,2,12,2s10,4.486,10,10-4.486,10-10,10Zm4-8c0,1.654-1.346,3-3,3v1c0,.553-.447,1-1,1s-1-.447-1-1v-1h-.268c-1.067,0-2.063-.574-2.598-1.499-.277-.479-.113-1.09,.364-1.366,.479-.279,1.091-.113,1.366,.364,.179,.31,.511,.501,.867,.501h2.268c.552,0,1-.448,1-1,0-.378-.271-.698-.644-.76l-3.041-.507c-1.342-.223-2.315-1.373-2.315-2.733,0-1.654,1.346-3,3-3v-1c0-.552,.447-1,1-1s1,.448,1,1v1h.268c1.067,0,2.063,.575,2.598,1.5,.277,.478,.113,1.089-.364,1.366-.48,.277-1.091,.113-1.366-.365-.179-.309-.511-.5-.867-.5h-2.268c-.552,0-1,.449-1,1,0,.378,.271,.698,.644,.76l3.041,.507c1.342,.223,2.315,1.373,2.315,2.733Z" />
  </symbol>

  <symbol id="user-status" viewBox="0 0 24 24">
    <path
      d="m8.474 11a5.5 5.5 0 1 1 5.5-5.5 5.506 5.506 0 0 1 -5.5 5.5zm0-9a3.5 3.5 0 1 0 3.5 3.5 3.5 3.5 0 0 0 -3.5-3.5zm8.526 22a7 7 0 1 1 7-7 7.008 7.008 0 0 1 -7 7zm0-12a5 5 0 1 0 5 5 5.006 5.006 0 0 0 -5-5zm2.707 6.293-1.707-1.707v-2.586h-2v3.414l2.293 2.293zm-10.76-5.293h-3.947a5.006 5.006 0 0 0 -5 5v6h2v-6a3 3 0 0 1 3-3h3.231a8.852 8.852 0 0 1 .716-2z" />
  </symbol>

  <symbol id="gift" viewBox="0 0 24 24">
    <path
      d="M20,7H18.262A5.137,5.137,0,0,0,20,3a1,1,0,0,0-2,0c0,2.622-2.371,3.53-4.174,3.841A9.332,9.332,0,0,0,15,3,3,3,0,0,0,9,3a9.332,9.332,0,0,0,1.174,3.841C8.371,6.53,6,5.622,6,3A1,1,0,0,0,4,3,5.137,5.137,0,0,0,5.738,7H4a4,4,0,0,0-4,4v1a2,2,0,0,0,2,2v5a5.006,5.006,0,0,0,5,5H17a5.006,5.006,0,0,0,5-5V14a2,2,0,0,0,2-2V11A4,4,0,0,0,20,7ZM12,2a1,1,0,0,1,1,1,7.71,7.71,0,0,1-1,3.013A7.71,7.71,0,0,1,11,3,1,1,0,0,1,12,2ZM2,11A2,2,0,0,1,4,9h7v3H2Zm2,8V14h7v8H7A3,3,0,0,1,4,19Zm16,0a3,3,0,0,1-3,3H13V14h7Zm-7-7V9h7a2,2,0,0,1,2,2v1Z" />
  </symbol>

  <symbol id="calendar" viewBox="0 0 24 24">
    <path
      d="m8,12h-2c-1.103,0-2,.897-2,2v2c0,1.103.897,2,2,2h2c1.103,0,2-.897,2-2v-2c0-1.103-.897-2-2-2Zm-2,4v-2h2v2s-2,0-2,0ZM19,2h-1v-1c0-.552-.447-1-1-1s-1,.448-1,1v1h-8v-1c0-.552-.447-1-1-1s-1,.448-1,1v1h-1C2.243,2,0,4.243,0,7v12c0,2.757,2.243,5,5,5h14c2.757,0,5-2.243,5-5V7c0-2.757-2.243-5-5-5Zm-14,2h14c1.654,0,3,1.346,3,3v1H2v-1c0-1.654,1.346-3,3-3Zm14,18H5c-1.654,0-3-1.346-3-3v-9h20v9c0,1.654-1.346,3-3,3Z" />
  </symbol>

  <symbol id="calendar-payday" viewBox="0 0 24 24">
    <path
      d="m24,19c0,1.654-1.346,3-3,3v1c0,.553-.447,1-1,1s-1-.447-1-1v-1h-.268c-1.067,0-2.063-.574-2.598-1.499-.277-.479-.113-1.09.364-1.366.479-.279,1.091-.113,1.366.364.179.31.511.501.867.501h2.268c.552,0,1-.448,1-1,0-.379-.271-.698-.645-.761l-3.04-.506c-1.342-.224-2.315-1.374-2.315-2.733,0-1.654,1.346-3,3-3v-1c0-.553.447-1,1-1s1,.447,1,1v1h.268c1.067,0,2.063.574,2.598,1.499.277.479.113,1.09-.364,1.366-.48.278-1.091.112-1.366-.364-.179-.31-.511-.501-.867-.501h-2.268c-.552,0-1,.448-1,1,0,.379.271.698.645.761l3.04.506c1.342.224,2.315,1.374,2.315,2.733ZM19,2h-1v-1c0-.553-.447-1-1-1s-1,.447-1,1v1h-8v-1c0-.553-.447-1-1-1s-1,.447-1,1v1h-1C2.243,2,0,4.243,0,7v12c0,2.757,2.243,5,5,5h9c.553,0,1-.447,1-1s-.447-1-1-1H5c-1.654,0-3-1.346-3-3v-9h15c.553,0,1-.447,1-1s-.447-1-1-1H2v-1c0-1.654,1.346-3,3-3h14c1.654,0,3,1.346,3,3v2c0,.553.447,1,1,1s1-.447,1-1v-2c0-2.757-2.243-5-5-5Z" />
  </symbol>

  <symbol id="plus" viewBox="0 0 24 24">
    <path
      d="M16.5,10.5h-3v-3a1.5,1.5,0,0,0-3,0v3h-3a1.5,1.5,0,0,0,0,3h3v3a1.5,1.5,0,0,0,3,0v-3h3a1.5,1.5,0,0,0,0-3Z" />
  </symbol>

  <symbol id="users-icon" viewBox="0 0 24 24">
    <path
      d="m24,21.5v1c0,.829-.671,1.5-1.5,1.5s-1.5-.671-1.5-1.5v-1c0-1.306-.569-2.474-1.46-3.297l-1.82,2.211c-.625.781-1.814.781-2.439,0l-1.82-2.211c-.892.823-1.46,1.991-1.46,3.297v1c0,.829-.671,1.5-1.5,1.5s-1.5-.671-1.5-1.5v-1c0-4.136,3.364-7.5,7.5-7.5s7.5,3.364,7.5,7.5Zm-13.88-7.018c-.817-.306-1.698-.482-2.62-.482-4.136,0-7.5,3.364-7.5,7.5v1c0,.829.671,1.5,1.5,1.5s1.5-.671,1.5-1.5v-1c0-1.306.568-2.474,1.46-3.297l1.82,2.211c.203.253.467.415.749.505.155-2.547,1.314-4.821,3.091-6.437ZM.024,11.231s1.04-5.704,1.105-6.028C1.742,2.188,4.421,0,7.5,0c1.765,0,3.403.726,4.602,1.932,1.097-1.185,2.66-1.932,4.398-1.932,3.309,0,6,2.691,6,6s-2.691,6-6,6-6-2.691-6-6c0-.375.039-.741.105-1.097-.289-.561-.714-1.027-1.23-1.355-1.176,1.489-2.978,2.395-4.876,2.449,0,0,0,.002,0,.003,0,1.654,1.346,3,3,3,.117,0,.232-.006.345-.02.816-.102,1.567.495,1.662,1.318.095.823-.496,1.567-1.318,1.662-.226.026-.456.039-.688.039h-2.697c-.882,0-1.736.259-2.471.748-.252.168-.542.252-.832.252-.287,0-.574-.082-.824-.247-.503-.331-.759-.93-.651-1.522Zm13.476-5.231c0,1.654,1.346,3,3,3s3-1.346,3-3-1.346-3-3-3-3,1.346-3,3Z" />
  </symbol>

  <symbol id="users-icon" viewBox="0 0 24 24">
    <path
      d="m24,21.5v1c0,.829-.671,1.5-1.5,1.5s-1.5-.671-1.5-1.5v-1c0-1.306-.569-2.474-1.46-3.297l-1.82,2.211c-.625.781-1.814.781-2.439,0l-1.82-2.211c-.892.823-1.46,1.991-1.46,3.297v1c0,.829-.671,1.5-1.5,1.5s-1.5-.671-1.5-1.5v-1c0-4.136,3.364-7.5,7.5-7.5s7.5,3.364,7.5,7.5Zm-13.88-7.018c-.817-.306-1.698-.482-2.62-.482-4.136,0-7.5,3.364-7.5,7.5v1c0,.829.671,1.5,1.5,1.5s1.5-.671,1.5-1.5v-1c0-1.306.568-2.474,1.46-3.297l1.82,2.211c.203.253.467.415.749.505.155-2.547,1.314-4.821,3.091-6.437ZM.024,11.231s1.04-5.704,1.105-6.028C1.742,2.188,4.421,0,7.5,0c1.765,0,3.403.726,4.602,1.932,1.097-1.185,2.66-1.932,4.398-1.932,3.309,0,6,2.691,6,6s-2.691,6-6,6-6-2.691-6-6c0-.375.039-.741.105-1.097-.289-.561-.714-1.027-1.23-1.355-1.176,1.489-2.978,2.395-4.876,2.449,0,0,0,.002,0,.003,0,1.654,1.346,3,3,3,.117,0,.232-.006.345-.02.816-.102,1.567.495,1.662,1.318.095.823-.496,1.567-1.318,1.662-.226.026-.456.039-.688.039h-2.697c-.882,0-1.736.259-2.471.748-.252.168-.542.252-.832.252-.287,0-.574-.082-.824-.247-.503-.331-.759-.93-.651-1.522Zm13.476-5.231c0,1.654,1.346,3,3,3s3-1.346,3-3-1.346-3-3-3-3,1.346-3,3Z" />
  </symbol>

  <symbol id="dumbbell-heart" viewBox="0 0 24 24">
    <path
      d="M5.077,3.95C5.077,1.824,6.644,.1,8.577,.1s3.5,1.724,3.5,3.85C12.077,1.824,13.644,.1,15.577,.1s3.5,1.724,3.5,3.85c0,4.032-7,8.75-7,8.75,0,0-7-4.718-7-8.75Zm18.923,13.05h-1v-3h-2v8h2v-3h1v-2Zm-6,0H6v-5h-2v12h2v-5h12v5h2V12h-2v5Zm-17,0H0v2H1v3H3V14H1v3Z" />
  </symbol>

  <symbol id="delete-key" viewBox="0 0 24 24">
    <path
      d="m19 2h-9.044a4.966 4.966 0 0 0 -3.946 1.931l-5.8 7.455a1 1 0 0 0 0 1.228l5.8 7.455a4.966 4.966 0 0 0 3.946 1.931h9.044a5.006 5.006 0 0 0 5-5v-10a5.006 5.006 0 0 0 -5-5zm3 15a3 3 0 0 1 -3 3h-9.044a2.979 2.979 0 0 1 -2.368-1.158l-5.321-6.842 5.321-6.842a2.979 2.979 0 0 1 2.368-1.158h9.044a3 3 0 0 1 3 3zm-4.793-6.793-1.793 1.793 1.793 1.793a1 1 0 1 1 -1.414 1.414l-1.793-1.793-1.793 1.793a1 1 0 0 1 -1.414-1.414l1.793-1.793-1.793-1.793a1 1 0 0 1 1.414-1.414l1.793 1.793 1.793-1.793a1 1 0 0 1 1.414 1.414z" />
  </symbol>

  <symbol id="clean-key" viewBox="0 0 24 24">
    <path
      d="M23.715,2.285a1.013,1.013,0,0,0-1.43,0L17.521,7.049l-.32-.313a5.008,5.008,0,0,0-6.429-.479A16.618,16.618,0,0,1,6.224,8.685L4.15,9.293a5.036,5.036,0,0,0-3.113,2.635A4.973,4.973,0,0,0,.9,15.947a12.95,12.95,0,0,0,12.112,8.064h.924a1.011,1.011,0,0,0,.578-.182A15.288,15.288,0,0,0,21.224,13.62a5.029,5.029,0,0,0-1.453-4.374l-.8-.784,4.747-4.747A1.013,1.013,0,0,0,23.715,2.285Zm-10.107,19.7h-.6A11.3,11.3,0,0,1,8.7,21.138l.011-.006a11.546,11.546,0,0,0,4.351-3.8l.518-.761a1.01,1.01,0,0,0-1.67-1.138l-.518.761A9.535,9.535,0,0,1,7.8,19.327l-1.251.63a10.757,10.757,0,0,1-2.583-2.57,11.625,11.625,0,0,0,4.377-2.664,1.011,1.011,0,0,0-1.414-1.446,9.617,9.617,0,0,1-3.98,2.32c-.061-.135-.127-.267-.182-.406a2.906,2.906,0,0,1,.085-2.381,3.023,3.023,0,0,1,1.864-1.578l2.073-.608a15.364,15.364,0,0,0,3.426-1.588l7.915,7.712A14.192,14.192,0,0,1,13.608,21.989Zm5.62-8.683a12.421,12.421,0,0,1-.309,1.387L11.948,7.9l0,0a3.011,3.011,0,0,1,1.755-.566,2.973,2.973,0,0,1,2.084.849l2.569,2.509A3.01,3.01,0,0,1,19.228,13.306Z" />
  </symbol>

  <symbol id="notify-icon" viewBox="0 0 24 24">
    <path
      d="m23 9c-.552 0-1 .448-1 1v7.854c0 .102-.127.189-.23.124l-4.215-2.811c-.164-.109-.357-.168-.555-.168h-6c-1.654 0-3-1.346-3-3v-6.999c0-1.654 1.346-3 3-3h3c.552 0 1-.448 1-1s-.448-1-1-1h-3c-2.414 0-4.434 1.721-4.899 4h-1.101c-2.757 0-5 2.243-5 5v12.854c0 .794.435 1.52 1.134 1.894.318.171.667.252 1.015.252.407 0 .831-.118 1.19-.357l3.963-2.643h5.697c2.171 0 4.004-1.399 4.694-3.336l2.968 1.978c.36.24.774.361 1.19.361.348 0 .696-.085 1.015-.256.7-.374 1.134-1.1 1.134-1.894v-7.854c0-.552-.448-1-1-1zm-10 10h-6c-.197 0-.391.059-.555.168l-4.215 2.811c-.122.076-.233-.001-.23-.124v-12.855c0-1.654 1.346-3 3-3h1v6c0 2.757 2.243 5 5 5h4.816c-.414 1.161-1.514 2-2.816 2zm7-11c2.206 0 4-1.794 4-4s-1.794-4-4-4-4 1.794-4 4 1.794 4 4 4zm0-6c1.103 0 2 .897 2 2s-.897 2-2 2-2-.897-2-2 .897-2 2-2z" />
  </symbol>


  <symbol id="hospital" viewBox="0 0 24 24">
    <path
      d="m18.5 5h-1.5v-1.5a3.5 3.5 0 0 0 -3.5-3.5h-3a3.5 3.5 0 0 0 -3.5 3.5v1.5h-1.5a5.506 5.506 0 0 0 -5.5 5.5v8a5.506 5.506 0 0 0 5.5 5.5h13a5.506 5.506 0 0 0 5.5-5.5v-8a5.506 5.506 0 0 0 -5.5-5.5zm-8.5-1.5a.5.5 0 0 1 .5-.5h3a.5.5 0 0 1 .5.5v1.5h-4zm11 15a2.5 2.5 0 0 1 -2.5 2.5h-13a2.5 2.5 0 0 1 -2.5-2.5v-8a2.5 2.5 0 0 1 2.5-2.5h13a2.5 2.5 0 0 1 2.5 2.5zm-4.5-4a1.5 1.5 0 0 1 -1.5 1.5h-1.5v1.5a1.5 1.5 0 0 1 -3 0v-1.5h-1.5a1.5 1.5 0 0 1 0-3h1.5v-1.5a1.5 1.5 0 0 1 3 0v1.5h1.5a1.5 1.5 0 0 1 1.5 1.5z" />
  </symbol>

  <symbol id="edit" viewBox="0 0 24 24">
    <path
      d="m12,0C5.383,0,0,5.383,0,12s5.383,12,12,12,12-5.383,12-12S18.617,0,12,0Zm0,22c-5.514,0-10-4.486-10-10S6.486,2,12,2s10,4.486,10,10-4.486,10-10,10Zm1.379-15.621l-5.914,5.914c-.944.944-1.465,2.2-1.465,3.535v1.172c0,.553.447,1,1,1h1.172c1.335,0,2.591-.521,3.535-1.465l5.914-5.914c1.17-1.17,1.17-3.072,0-4.242s-3.072-1.17-4.242,0Zm-3.086,8.742c-.559.559-1.332.879-2.121.879h-.172v-.172c0-.789.32-1.562.879-2.121l3.457-3.457,1.414,1.414-3.457,3.457Zm5.914-5.914l-1.043,1.043-1.414-1.414,1.043-1.043c.391-.391,1.023-.391,1.414,0s.39,1.024,0,1.414Z" />
  </symbol>

  <symbol id="check" viewBox="0 0 24 24">
    <path
      d="m12,0C5.383,0,0,5.383,0,12s5.383,12,12,12,12-5.383,12-12S18.617,0,12,0Zm-.091,15.419c-.387.387-.896.58-1.407.58s-1.025-.195-1.416-.585l-2.782-2.696,1.393-1.437,2.793,2.707,5.809-5.701,1.404,1.425-5.793,5.707Z" />
  </symbol>

  <symbol id="warn" viewBox="0 0 24 24">
    <path
      d="M23.08,15.33L15,2.57c-.68-.98-1.81-1.57-3-1.57s-2.32,.58-3.03,1.6L.93,15.31c-1.02,1.46-1.21,3.21-.5,4.56,.7,1.35,2.17,2.12,4.01,2.12h15.12c1.85,0,3.31-.77,4.01-2.12,.7-1.35,.51-3.09-.49-4.54ZM11,7c0-.55,.45-1,1-1s1,.45,1,1v6c0,.55-.45,1-1,1s-1-.45-1-1V7Zm1,12c-.83,0-1.5-.67-1.5-1.5s.67-1.5,1.5-1.5,1.5,.67,1.5,1.5-.67,1.5-1.5,1.5Z" />
  </symbol>

  <symbol id="error" viewBox="0 0 24 24">
    <path
      d="m22.242,5.272l-3.515-3.515c-1.133-1.133-2.64-1.757-4.242-1.757h-4.971c-1.602,0-3.109.624-4.243,1.757l-3.515,3.515c-1.133,1.134-1.757,2.641-1.757,4.243v4.971c0,1.602.624,3.109,1.757,4.243l3.515,3.515c1.134,1.133,2.641,1.757,4.243,1.757h4.971c1.603,0,3.109-.624,4.242-1.757l3.515-3.514c1.134-1.133,1.758-2.64,1.758-4.243v-4.971c0-1.603-.624-3.11-1.758-4.243Zm-5.803,9.789c.391.391.391,1.023,0,1.414-.195.195-.451.293-.707.293s-.512-.098-.707-.293l-3.043-3.043-3.043,3.043c-.195.195-.451.293-.707.293s-.512-.098-.707-.293c-.391-.391-.391-1.023,0-1.414l3.043-3.043-3.043-3.043c-.391-.391-.391-1.023,0-1.414s1.023-.391,1.414,0l3.043,3.043,3.043-3.043c.391-.391,1.023-.391,1.414,0s.391,1.023,0,1.414l-3.043,3.043,3.043,3.043Z" />
  </symbol>
</svg>