<svg xmlns="http://www.w3.org/2000/svg" style="display: none;">
  <symbol id="class-icon" viewBox="0 0 24 24">
    <path
      d="m7 11c0 2.757 2.243 5 5 5s5-2.243 5-5c0-.552.448-1 1-1s1 .448 1 1c0 3.86-3.14 7-7 7s-7-3.14-7-7 3.14-7 7-7c.552 0 1 .448 1 1s-.448 1-1 1c-2.757 0-5 2.243-5 5zm5 1c-.552 0-1-.448-1-1 0-.276.112-.526.293-.707l1.982-1.982c-1.112-.501-2.51-.319-3.397.568s0 0 0 0c-.566.566-.878 1.32-.878 2.121s.312 1.555.878 2.121 1.32.879 2.122.879 1.555-.312 2.121-.878.879-1.32.879-2.122c0-.454-.11-.888-.3-1.286l-1.992 1.992c-.181.181-.431.293-.707.293zm1.275-3.69c.309.139.6.322.846.568s.433.531.578.835l1.714-1.714h2.586c.265 0 .52-.105.707-.293l2-2c.286-.286.372-.716.217-1.09s-.52-.617-.924-.617h-2v-1.999c0-.404-.244-.769-.617-.924-.375-.155-.804-.07-1.09.217l-2 2c-.188.188-.293.442-.293.707v2.586l-1.725 1.725zm6.02 10.9c2.267-2.016 3.705-4.945 3.705-8.21 0-.371-.018-.737-.054-1.099-.055-.549-.542-.951-1.094-.896-.549.055-.951.544-.896 1.094.029.296.044.597.044.901 0 4.962-4.038 9-9 9s-9-4.038-9-9 4.038-9 9-9c.304 0 .604.015.901.044.556.056 1.04-.347 1.094-.896.055-.55-.347-1.04-.896-1.094-.362-.036-.729-.054-1.099-.054-6.065 0-11 4.935-11 11 0 3.265 1.438 6.194 3.705 8.21l-2.051 3.257c-.294.467-.154 1.084.313 1.379.46.292 1.083.158 1.379-.313l1.972-3.132c1.661 1.008 3.601 1.599 5.682 1.599s4.021-.591 5.682-1.599l1.972 3.132c.296.471.919.605 1.379.313.467-.294.608-.912.313-1.379z" />
  </symbol>

  <symbol id="birthday" viewBox="0 0 24 24">
    <path
      d="m16.942,16.73c.198-1.011-.118-2.05-.847-2.778l-6.047-6.047c-.729-.729-1.767-1.043-2.778-.848-1.011.198-1.853.884-2.253,1.833L.211,20.302c-.421,1.003-.197,2.146.572,2.915.511.511,1.188.781,1.878.781.349,0,.701-.068,1.037-.21l11.411-4.805c.949-.399,1.634-1.242,1.833-2.253Zm-2.996-.513h0l-10.646,4.483,4.482-10.646.145-.028,6.072,6.127c-.009.047-.036.058-.052.064ZM12.843.562c.518-.638,1.443-.748,2.086-.239.839.662,2.218,2.413,2.068,4.773-.074,1.156-.512,2.27-1.302,3.311-.295.39-.743.594-1.196.594-.316,0-.635-.1-.906-.305-.66-.501-.789-1.442-.288-2.102.427-.563.662-1.132.698-1.689.087-1.36-.905-2.203-.947-2.238-.63-.525-.73-1.467-.213-2.104Zm10.883,11.074c.477.677.315,1.613-.362,2.09-.263.186-.564.274-.863.274-.462,0-.917-.213-1.209-.61-.034-.042-.331-.39-.792-.39-.235,0-.432.062-.602.19-.661.498-1.602.367-2.101-.294s-.368-1.602.293-2.101c.69-.521,1.523-.796,2.409-.796,2.015,0,3.108,1.468,3.226,1.636Zm-2.726-10.136c0-.828.672-1.5,1.5-1.5s1.5.672,1.5,1.5-.672,1.5-1.5,1.5-1.5-.672-1.5-1.5Zm-2,5c0-.828.672-1.5,1.5-1.5s1.5.672,1.5,1.5-.672,1.5-1.5,1.5-1.5-.672-1.5-1.5ZM8,2.5c0-.828.672-1.5,1.5-1.5s1.5.672,1.5,1.5-.672,1.5-1.5,1.5-1.5-.672-1.5-1.5Zm15,16c0,.828-.672,1.5-1.5,1.5s-1.5-.672-1.5-1.5.672-1.5,1.5-1.5,1.5.672,1.5,1.5ZM1,3.5c0-.828.672-1.5,1.5-1.5s1.5.672,1.5,1.5-.672,1.5-1.5,1.5-1.5-.672-1.5-1.5Zm17,19c0,.828-.672,1.5-1.5,1.5s-1.5-.672-1.5-1.5.672-1.5,1.5-1.5,1.5.672,1.5,1.5Z" />
  </symbol>

  <symbol id="phone" viewBox="0 0 24 24">
    <path
      d="M17.5,24C9.351,24.229-5.075,9.787,1.862,1.938,1.887,1.914,2.954.984,2.954.984a3.583,3.583,0,0,1,4.908.041l2.152,2.318a3.522,3.522,0,0,1-.039,4.91l-.388.394a11.6,11.6,0,0,0,5.754,5.778l.411-.4a3.585,3.585,0,0,1,4.945,0L22.934,16.1a3.515,3.515,0,0,1,.082,4.946s-.93,1.066-.954,1.091A6.39,6.39,0,0,1,17.5,24ZM3.95,4.1C-.909,10.118,14.644,24.773,19.905,20.05c0,0,.924-1.059.949-1.083a.5.5,0,0,0,0-.707l-2.238-2.074c-.3-.25-.469-.253-.747-.04l-1.136,1.118a1.5,1.5,0,0,1-1.587.332A14.852,14.852,0,0,1,6.414,8.877a1.5,1.5,0,0,1,.323-1.61L7.845,6.141a.485.485,0,0,0,.009-.717L5.7,3.106a.487.487,0,0,0-.667.04C5.009,3.171,3.95,4.1,3.95,4.1ZM16.808,15.086h0ZM24,9.5A9.511,9.511,0,0,0,14.5,0a1.5,1.5,0,0,0,0,3A6.508,6.508,0,0,1,21,9.5a1.5,1.5,0,0,0,3,0Zm-5,0A4.505,4.505,0,0,0,14.5,5a1.5,1.5,0,0,0,0,3A1.5,1.5,0,0,1,16,9.5a1.5,1.5,0,0,0,3,0Z" />
  </symbol>

  <symbol id="mail" viewBox="0 0 24 24">
    <path
      d="M18.5,1H5.5A5.506,5.506,0,0,0,0,6.5v11A5.506,5.506,0,0,0,5.5,23h13A5.506,5.506,0,0,0,24,17.5V6.5A5.506,5.506,0,0,0,18.5,1Zm0,3a2.476,2.476,0,0,1,1.643.631l-6.5,6.5a2.373,2.373,0,0,1-3.278,0l-6.5-6.5A2.476,2.476,0,0,1,5.5,4Zm0,16H5.5A2.5,2.5,0,0,1,3,17.5V8.017l5.239,5.239a5.317,5.317,0,0,0,7.521,0L21,8.017V17.5A2.5,2.5,0,0,1,18.5,20Z" />
  </symbol>
</svg>